<svg xmlns="http://www.w3.org/2000/svg" version="1.1" xmlns:xlink="http://www.w3.org/1999/xlink" xmlns:svgjs="http://svgjs.dev/svgjs" width="2000" height="358" viewBox="0 0 2000 358"><g transform="matrix(1,0,0,1,-1.2121212121212466,-0.02259107840509955)"><svg viewBox="0 0 396 71" data-background-color="#110f10" preserveAspectRatio="xMidYMid meet" height="358" width="2000" xmlns="http://www.w3.org/2000/svg" xmlns:xlink="http://www.w3.org/1999/xlink"><g id="tight-bounds" transform="matrix(1,0,0,1,0.2400000000000091,0.00448035353844034)"><svg viewBox="0 0 395.52 70.9910392929231" height="70.9910392929231" width="395.52"><g><svg viewBox="0 0 531.8752404247653 95.46514990879712" height="70.9910392929231" width="395.52"><g><rect width="6.557350703640819" height="73.07675806104128" x="112.6320501827977" y="11.19419592387792" fill="#a5fe52" opacity="1" stroke-width="0" stroke="transparent" fill-opacity="1" class="rect-yte-0" data-fill-palette-color="primary" rx="1%" id="yte-0" data-palette-color="#a5fe52"></rect></g><g transform="matrix(1,0,0,1,136.35524042476527,11.375978904129262)"><svg viewBox="0 0 395.52 72.71319210053859" height="72.71319210053859" width="395.52"><g id="textblocktransform"><svg viewBox="0 0 395.52 72.71319210053859" height="72.71319210053859" width="395.52" id="textblock"><g><svg viewBox="0 0 395.52 72.71319210053859" height="72.71319210053859" width="395.52"><g transform="matrix(1,0,0,1,0,0)"><svg width="395.52" viewBox="1.4249999999999998 -37.75 208.855 38.4" height="72.71319210053859" data-palette-color="#a5fe52"><g class="wordmark-text-0" data-fill-palette-color="primary" id="text-0"><path d="M12-29.45L12-29.45 12-6.2Q12-4.65 12.1-3.75 12.2-2.85 12.65-2.45 13.1-2.05 14.1-1.88 15.1-1.7 16.95-1.55L16.95-1.55Q17.1-0.75 16.95 0.05L16.95 0.05Q15.95 0.05 14.5 0.03 13.05 0 11.63-0.03 10.2-0.05 9.25-0.05L9.25-0.05Q8.3-0.05 6.88-0.03 5.45 0 4.03 0.03 2.6 0.05 1.5 0.05L1.5 0.05Q1.35-0.7 1.5-1.55L1.5-1.55Q3.9-1.8 4.95-2.02 6-2.25 6.25-3 6.5-3.75 6.5-5.55L6.5-5.55 6.5-28.8Q6.5-30.9 6.25-31.8 6-32.7 4.95-32.98 3.9-33.25 1.5-33.45L1.5-33.45Q1.4-34.2 1.5-35.05L1.5-35.05Q2.55-35.05 4.03-35.02 5.5-35 6.95-34.98 8.4-34.95 9.35-34.95L9.35-34.95Q10.3-34.95 11.7-34.98 13.1-35 14.55-35.02 16-35.05 16.95-35.05L16.95-35.05Q17.1-34.3 16.95-33.45L16.95-33.45Q14.6-33.25 13.55-33 12.5-32.75 12.25-32 12-31.25 12-29.45ZM35.5 0.05L35.5 0.05Q35.4-0.75 35.5-1.5L35.5-1.5Q37.05-1.6 37.8-1.83 38.55-2.05 38.8-2.8 39.05-3.55 39.05-5.2L39.05-5.2 39.05-15.3Q39.05-18.3 38.12-19.78 37.2-21.25 34.45-21.25L34.45-21.25Q33-21.25 31.65-20.73 30.3-20.2 28.7-18.75L28.7-18.75 28.7-5.7Q28.7-3.75 28.92-2.9 29.15-2.05 29.9-1.83 30.65-1.6 32.25-1.5L32.25-1.5Q32.35-0.75 32.25 0.05L32.25 0.05Q30.85 0.05 29.32 0 27.8-0.05 26.05-0.05L26.05-0.05Q24.45-0.05 22.9 0 21.35 0.05 19.85 0.05L19.85 0.05Q19.7-0.75 19.85-1.5L19.85-1.5Q21.55-1.6 22.35-1.83 23.15-2.05 23.4-2.8 23.65-3.55 23.65-5.2L23.65-5.2 23.65-16.4Q23.65-18.35 23.47-19.3 23.3-20.25 22.52-20.63 21.75-21 19.9-21.25L19.9-21.25Q19.75-21.95 19.9-22.55L19.9-22.55Q24.2-23.4 27.8-24.85L27.8-24.85 28.65-24.55 28.65-20.8Q30.95-22.9 33.15-23.75 35.35-24.6 37.35-24.6L37.35-24.6Q40.65-24.6 42.4-22.65 44.15-20.7 44.15-17.05L44.15-17.05 44.15-5.7Q44.15-3.75 44.37-2.9 44.6-2.05 45.35-1.83 46.1-1.6 47.75-1.5L47.75-1.5Q47.85-0.75 47.75 0.05L47.75 0.05Q46.25 0.05 44.82 0 43.4-0.05 41.5-0.05L41.5-0.05Q39.65-0.05 38.27 0 36.9 0.05 35.5 0.05ZM49.65 0.05L49.65 0.05Q49.6-0.15 49.6-0.35 49.6-0.55 49.6-0.75L49.6-0.75Q49.6-0.95 49.6-1.13 49.6-1.3 49.65-1.5L49.65-1.5Q51.35-1.6 52.15-1.83 52.95-2.05 53.2-2.8 53.45-3.55 53.45-5.2L53.45-5.2 53.45-30.25Q53.45-31.8 53.17-32.58 52.9-33.35 52.02-33.68 51.15-34 49.4-34.15L49.4-34.15Q49.35-34.35 49.35-34.5 49.35-34.65 49.35-34.8L49.35-34.8Q49.35-35 49.35-35.15 49.35-35.3 49.4-35.5L49.4-35.5Q51.4-35.75 53.5-36.27 55.6-36.8 57.8-37.75L57.8-37.75 58.65-37.45Q58.6-36.35 58.57-34.95 58.55-33.55 58.55-31.9L58.55-31.9 58.55-13.35Q59.15-13.35 59.55-13.55 59.95-13.75 60.2-13.95L60.2-13.95Q60.3-14.05 60.6-14.33 60.9-14.6 61.65-15.35 62.4-16.1 63.8-17.6L63.8-17.6Q65.09-19.05 65.87-19.88 66.65-20.7 66.65-21.25L66.65-21.25Q66.65-21.65 65.97-21.93 65.3-22.2 64.15-22.25L64.15-22.25Q64.09-22.45 64.09-22.65 64.09-22.85 64.09-23.05L64.09-23.05Q64.09-23.25 64.09-23.45 64.09-23.65 64.15-23.85L64.15-23.85Q65.15-23.85 66.67-23.8 68.2-23.75 69.4-23.75L69.4-23.75Q70-23.75 71.12-23.78 72.25-23.8 73.4-23.8 74.55-23.8 75.09-23.8L75.09-23.8Q75.15-23.6 75.17-23.4 75.2-23.2 75.2-23L75.2-23Q75.2-22.8 75.17-22.63 75.15-22.45 75.09-22.25L75.09-22.25Q72.5-22.2 70.7-20.98 68.9-19.75 67.25-18.1L67.25-18.1 63.65-14.5 70.55-5.4Q71.65-3.95 72.37-3.13 73.09-2.3 73.95-1.95 74.8-1.6 76.3-1.5L76.3-1.5Q76.4-0.8 76.3 0.05L76.3 0.05Q75.65 0.05 74.37 0 73.09-0.05 70.4-0.05L70.4-0.05Q70-0.05 69.2-0.05 68.4-0.05 67.7 0.05L67.7 0.05Q67.7-0.5 67.09-1.48 66.5-2.45 66.15-2.9L66.15-2.9Q66-3.15 65.4-3.98 64.8-4.8 63.97-5.93 63.15-7.05 62.3-8.22 61.45-9.4 60.75-10.3L60.75-10.3Q60.2-11.05 59.72-11.48 59.25-11.9 58.55-11.9L58.55-11.9 58.55-5.7Q58.55-3.75 58.72-2.9 58.9-2.05 59.57-1.83 60.25-1.6 61.65-1.5L61.65-1.5Q61.75-0.75 61.65 0.05L61.65 0.05Q60.35 0.05 58.92 0 57.5-0.05 55.85-0.05L55.85-0.05Q54.25-0.05 52.7 0 51.15 0.05 49.65 0.05ZM89.44-15.8L89.44-15.8 88.14-15.95 88.14-6.2Q88.14-4.65 88.24-3.75 88.34-2.85 88.77-2.45 89.19-2.05 90.17-1.88 91.14-1.7 92.89-1.55L92.89-1.55Q93.04-0.75 92.89 0.05L92.89 0.05Q91.89 0.05 90.49 0.03 89.09 0 87.69-0.03 86.29-0.05 85.34-0.05L85.34-0.05Q84.44-0.05 82.99-0.03 81.54 0 80.09 0.03 78.64 0.05 77.64 0.05L77.64 0.05Q77.49-0.7 77.64-1.55L77.64-1.55Q80.04-1.75 81.09-1.98 82.14-2.2 82.39-2.98 82.64-3.75 82.64-5.55L82.64-5.55 82.64-28.85Q82.64-30.9 82.37-31.8 82.09-32.7 81.04-33 79.99-33.3 77.64-33.45L77.64-33.45Q77.49-34.2 77.64-35.05L77.64-35.05Q78.59-35.05 80.12-35.02 81.64-35 83.12-34.98 84.59-34.95 85.29-34.95L85.29-34.95Q86.19-34.95 87.62-34.98 89.04-35 90.47-35.05 91.89-35.1 92.69-35.1L92.69-35.1Q95.84-35.1 98.57-34.25 101.29-33.4 102.97-31.48 104.64-29.55 104.64-26.3L104.64-26.3Q104.64-23.1 102.72-20.6 100.79-18.1 96.64-16.85L96.64-16.85 96.64-16.7Q97.39-16.1 98.34-14.7L98.34-14.7 103.59-7.1Q104.89-5.25 105.77-4.2 106.64-3.15 107.44-2.63 108.24-2.1 109.29-1.9 110.34-1.7 111.94-1.55L111.94-1.55Q112.09-0.75 111.94 0.05L111.94 0.05Q110.99 0.05 109.59 0.03 108.19 0 106.89-0.03 105.59-0.05 104.79-0.05L104.79-0.05Q103.99-0.05 103.39-0.03 102.79 0 101.99 0L101.99 0 92.74-13.65Q91.89-14.95 91.24-15.33 90.59-15.7 89.44-15.8ZM88.14-32.85L88.14-18Q88.79-17.9 89.29-17.85 89.79-17.8 90.24-17.8L90.24-17.8Q94.14-17.8 96.42-19.8 98.69-21.8 98.69-25.7L98.69-25.7Q98.69-29.25 96.72-31.15 94.74-33.05 90.89-33.05L90.89-33.05Q90.39-33.05 89.67-33 88.94-32.95 88.14-32.85L88.14-32.85ZM129.94 0.5L129.94 0.5Q126.64 0.5 125.79-2.8L125.79-2.8Q122.24 0.6 118.54 0.6L118.54 0.6Q115.99 0.6 114.22-0.93 112.44-2.45 112.44-5.15L112.44-5.15Q112.44-11.75 125.89-13.45L125.89-13.45Q125.89-14.65 125.92-15.9 125.94-17.15 125.94-18.55L125.94-18.55Q125.94-20.3 124.67-21.28 123.39-22.25 121.59-22.25L121.59-22.25Q120.29-22.25 119.39-21.85L119.39-21.85Q119.39-20.7 118.89-19.5 118.39-18.3 117.52-17.48 116.64-16.65 115.39-16.65L115.39-16.65Q114.29-16.65 113.67-17.28 113.04-17.9 113.04-18.8L113.04-18.8Q113.04-20 114.17-21.08 115.29-22.15 117.04-22.93 118.79-23.7 120.69-24.15 122.59-24.6 124.09-24.6L124.09-24.6Q125.94-24.6 127.52-23.93 129.09-23.25 130.07-21.93 131.04-20.6 131.04-18.65L131.04-18.65Q131.04-17.45 130.99-15.53 130.94-13.6 130.92-11.43 130.89-9.25 130.84-7.3 130.79-5.35 130.79-4.15L130.79-4.15Q130.79-2.55 132.19-2.55L132.19-2.55Q133.09-2.55 134.94-3.15L134.94-3.15Q135.14-2.9 135.22-2.6 135.29-2.3 135.34-2.05L135.34-2.05Q134.09-0.7 132.72-0.1 131.34 0.5 129.94 0.5ZM125.79-4.15L125.79-4.15 125.89-11.65Q121.29-11.05 119.57-9.7 117.84-8.35 117.84-6.25L117.84-6.25Q117.84-4.5 118.77-3.58 119.69-2.65 121.09-2.65L121.09-2.65Q121.99-2.65 123.12-3.05 124.24-3.45 125.79-4.15ZM156.24 0.65L156.24 0.65 155.44 0.3 155.24-3.15Q153.49-1.25 151.66-0.33 149.84 0.6 147.64 0.6L147.64 0.6Q144.54 0.6 142.21-1.07 139.89-2.75 138.64-5.45 137.39-8.15 137.39-11.3L137.39-11.3Q137.39-14.95 138.96-17.95 140.54-20.95 143.41-22.78 146.29-24.6 150.14-24.6L150.14-24.6Q151.29-24.6 152.54-24.43 153.79-24.25 155.14-23.85L155.14-23.85 155.14-30.25Q155.14-31.8 154.84-32.58 154.54-33.35 153.66-33.68 152.79-34 151.04-34.15L151.04-34.15Q150.89-34.8 151.04-35.5L151.04-35.5Q153.04-35.75 155.14-36.27 157.24-36.8 159.44-37.75L159.44-37.75 160.29-37.45Q160.24-36.35 160.21-34.95 160.19-33.55 160.19-31.9L160.19-31.9 160.19-7.1Q160.19-5.2 160.34-4.25 160.49-3.3 161.24-2.93 161.99-2.55 163.79-2.25L163.79-2.25Q163.94-1.6 163.79-0.9L163.79-0.9Q161.79-0.6 159.89-0.25 157.99 0.1 156.24 0.65ZM155.19-5.45L155.19-19.6Q153.04-22.55 149.54-22.55L149.54-22.55Q146.09-22.55 144.34-20.03 142.59-17.5 142.59-13.05L142.59-13.05Q142.59-10.45 143.29-8.05 143.99-5.65 145.59-4.1 147.19-2.55 149.84-2.55L149.84-2.55Q153.19-2.55 155.19-5.45L155.19-5.45ZM184.04 0.5L184.04 0.5Q180.74 0.5 179.89-2.8L179.89-2.8Q176.34 0.6 172.64 0.6L172.64 0.6Q170.09 0.6 168.31-0.93 166.54-2.45 166.54-5.15L166.54-5.15Q166.54-11.75 179.99-13.45L179.99-13.45Q179.99-14.65 180.01-15.9 180.04-17.15 180.04-18.55L180.04-18.55Q180.04-20.3 178.76-21.28 177.49-22.25 175.69-22.25L175.69-22.25Q174.39-22.25 173.49-21.85L173.49-21.85Q173.49-20.7 172.99-19.5 172.49-18.3 171.61-17.48 170.74-16.65 169.49-16.65L169.49-16.65Q168.39-16.65 167.76-17.28 167.14-17.9 167.14-18.8L167.14-18.8Q167.14-20 168.26-21.08 169.39-22.15 171.14-22.93 172.89-23.7 174.79-24.15 176.69-24.6 178.19-24.6L178.19-24.6Q180.04-24.6 181.61-23.93 183.19-23.25 184.16-21.93 185.14-20.6 185.14-18.65L185.14-18.65Q185.14-17.45 185.09-15.53 185.04-13.6 185.01-11.43 184.99-9.25 184.94-7.3 184.89-5.35 184.89-4.15L184.89-4.15Q184.89-2.55 186.29-2.55L186.29-2.55Q187.19-2.55 189.04-3.15L189.04-3.15Q189.24-2.9 189.31-2.6 189.39-2.3 189.44-2.05L189.44-2.05Q188.19-0.7 186.81-0.1 185.44 0.5 184.04 0.5ZM179.89-4.15L179.89-4.15 179.99-11.65Q175.39-11.05 173.66-9.7 171.94-8.35 171.94-6.25L171.94-6.25Q171.94-4.5 172.86-3.58 173.79-2.65 175.19-2.65L175.19-2.65Q176.09-2.65 177.21-3.05 178.34-3.45 179.89-4.15ZM190.88 0.05L190.88 0.05Q190.73-0.75 190.88-1.5L190.88-1.5Q192.58-1.6 193.38-1.83 194.18-2.05 194.43-2.8 194.68-3.55 194.68-5.2L194.68-5.2 194.68-16.4Q194.68-18.35 194.51-19.3 194.33-20.25 193.56-20.63 192.78-21 190.93-21.25L190.93-21.25Q190.78-21.95 190.93-22.55L190.93-22.55Q192.93-22.95 194.83-23.48 196.73-24 198.83-24.85L198.83-24.85 199.68-24.55 199.68-20.15Q203.18-24.6 206.83-24.6L206.83-24.6Q208.58-24.6 209.43-23.68 210.28-22.75 210.28-21.6L210.28-21.6Q210.28-20.25 209.38-19.53 208.48-18.8 207.33-18.8L207.33-18.8Q206.38-18.8 205.46-19.3 204.53-19.8 204.08-20.85L204.08-20.85Q202.38-20.85 201.06-19.53 199.73-18.2 199.73-16.45L199.73-16.45 199.73-5.7Q199.73-3.75 199.96-2.9 200.18-2.05 201.16-1.83 202.13-1.6 204.33-1.5L204.33-1.5Q204.43-0.8 204.33 0.05L204.33 0.05Q202.63 0.05 200.83 0 199.03-0.05 197.13-0.05L197.13-0.05Q195.28-0.05 193.86 0 192.43 0.05 190.88 0.05Z" fill="#a5fe52" data-fill-palette-color="primary"></path></g></svg></g></svg></g></svg></g></svg></g><g><svg viewBox="0 0 95.46621064447095 95.46514990879712" height="95.46514990879712" width="95.46621064447095"><g><svg xmlns="http://www.w3.org/2000/svg" xmlns:xlink="http://www.w3.org/1999/xlink" version="1.1" x="0" y="0" viewBox="4.834 5.001 90 89.999" enable-background="new 0 0 100 100" xml:space="preserve" height="95.46514990879712" width="95.46621064447095" class="icon-icon-0" data-fill-palette-color="accent" id="icon-0"><path fill="#a5fe52" d="M49.834 9.001C72.441 9.001 90.834 27.393 90.834 50S72.441 91 49.834 91 8.834 72.607 8.834 50 27.227 9.001 49.834 9.001M49.834 5.001C24.98 5.001 4.834 25.147 4.834 50S24.98 95 49.834 95 94.834 74.854 94.834 50 74.687 5.001 49.834 5.001" data-fill-palette-color="accent"></path><path fill="#a5fe52" d="M49.834 45.001C47.075 45.001 44.834 47.239 44.834 50S47.075 55 49.834 55 54.834 52.76 54.834 50A5 5 0 0 0 49.834 45.001" data-fill-palette-color="accent"></path><path fill="#a5fe52" d="M49.834 78A5.001 5.001 0 0 0 49.834 88 5.001 5.001 0 0 0 49.834 78" data-fill-palette-color="accent"></path><path fill="#a5fe52" d="M71.168 38.692C68.961 38.692 67.168 40.483 67.168 42.692S68.961 46.692 71.168 46.692 75.168 44.9 75.168 42.692 73.375 38.692 71.168 38.692" data-fill-palette-color="accent"></path><path fill="#a5fe52" d="M25.371 25.001A3.001 3.001 0 0 0 25.371 31.001 3.001 3.001 0 0 0 25.371 25.001" data-fill-palette-color="accent"></path><path fill="#a5fe52" d="M27.788 71.795S28.307 72.278 29.277 73.186C29.52 73.413 29.792 73.665 30.09 73.945L31.059 74.685 32.181 75.548C32.572 75.863 33.077 76.126 33.561 76.445 35.498 77.759 38.104 78.955 41.207 79.946 44.33 80.94 48.005 81.429 52.101 81.195 53.205 81.201 54.136 80.986 55.163 80.86 56.174 80.77 57.217 80.444 58.275 80.202 60.388 79.666 62.488 78.814 64.572 77.789 68.713 75.68 72.554 72.416 75.585 68.321 75.994 67.83 76.33 67.285 76.663 66.736L77.688 65.093 78.554 63.345C78.853 62.764 79.143 62.176 79.351 61.551L80.053 59.701C80.28 59.08 80.411 58.427 80.597 57.788 81.002 56.515 81.163 55.183 81.389 53.856 81.532 53.196 81.52 52.517 81.576 51.843 81.609 51.192 81.678 50.442 81.685 49.866L81.602 47.757 81.56 46.7 81.417 45.705 81.136 43.709C81.003 43.043 80.818 42.379 80.661 41.713 80.397 40.362 79.841 39.098 79.409 37.793 78.32 35.278 77.073 32.793 75.375 30.627 74.612 29.479 73.632 28.511 72.739 27.473 72.275 26.971 71.747 26.533 71.256 26.059 70.754 25.596 70.272 25.111 69.712 24.72 65.46 21.329 60.441 18.987 55.291 18.127 50.158 17.209 44.969 17.545 40.372 18.87 35.746 20.201 31.726 22.551 28.512 25.258 25.299 27.983 22.847 31.058 21.164 34.052 20.722 34.788 20.396 35.558 20.026 36.27 19.853 36.632 19.66 36.978 19.512 37.336L19.109 38.401C18.854 39.1 18.573 39.76 18.37 40.411L17.862 42.297C17.489 43.481 17.397 44.589 17.219 45.535 17.03 46.481 16.992 47.3 16.957 47.963 16.878 49.292 16.834 50 16.834 50L16.914 47.963C16.935 47.298 16.954 46.476 17.123 45.525 17.28 44.574 17.349 43.457 17.696 42.26L18.165 40.352C18.355 39.692 18.623 39.022 18.865 38.312L19.248 37.229C19.39 36.865 19.576 36.512 19.742 36.143 20.099 35.416 20.412 34.631 20.843 33.877 22.478 30.812 24.893 27.638 28.105 24.789 31.319 21.959 35.376 19.461 40.104 17.987 44.837 16.514 50.149 16.049 55.505 16.883 60.875 17.661 66.176 19.981 70.72 23.446 71.316 23.846 71.835 24.342 72.373 24.817 72.901 25.302 73.466 25.754 73.967 26.272 74.932 27.34 75.986 28.344 76.82 29.536 78.661 31.787 80.047 34.384 81.259 37.035 81.752 38.408 82.367 39.745 82.685 41.176 82.868 41.884 83.079 42.582 83.237 43.3L83.595 45.496 83.769 46.594 83.833 47.65 83.963 49.757C83.977 50.585 83.919 51.236 83.899 51.983 83.857 52.706 83.879 53.434 83.747 54.147 83.539 55.577 83.39 57.015 82.988 58.397 82.804 59.09 82.673 59.797 82.445 60.474L81.732 62.489C81.518 63.169 81.221 63.812 80.913 64.448L80.015 66.361 78.946 68.167C78.596 68.771 78.242 69.369 77.813 69.913 74.624 74.434 70.508 78.089 66.016 80.507 63.756 81.687 61.462 82.672 59.144 83.317 57.976 83.616 56.864 83.986 55.667 84.13 54.503 84.306 53.302 84.558 52.273 84.571 47.89 84.921 43.688 84.47 40.205 83.44 36.712 82.417 33.762 81.127 31.554 79.708 30.994 79.358 30.447 79.084 29.965 78.721 29.481 78.365 29.027 78.032 28.605 77.72L27.441 76.852C27.136 76.58 26.86 76.332 26.612 76.112L25.092 74.754z" data-fill-palette-color="accent"></path><path fill="#a5fe52" d="M34.868 64.728L35.901 65.704 36.464 66.235 37.11 66.733C37.571 67.093 38.089 67.52 38.786 67.927 40.093 68.829 41.857 69.649 43.96 70.338 46.081 71.028 48.564 71.375 51.373 71.233 52.154 71.239 52.765 71.097 53.458 71.016 54.135 70.961 54.85 70.744 55.571 70.581 57.013 70.225 58.448 69.652 59.873 68.96 62.708 67.539 65.345 65.323 67.435 62.535 69.562 59.764 70.923 56.295 71.469 52.654 71.57 52.202 71.566 51.736 71.605 51.275 71.631 50.836 71.679 50.296 71.69 49.935L71.638 48.465 71.613 47.728 71.519 47.049 71.334 45.689C71.247 45.233 71.12 44.775 71.016 44.317 70.839 43.387 70.462 42.517 70.169 41.619 69.431 39.886 68.581 38.172 67.42 36.674 66.899 35.881 66.228 35.21 65.616 34.492 65.3 34.142 64.935 33.841 64.599 33.512 64.254 33.192 63.924 32.854 63.54 32.583 60.62 30.23 57.165 28.591 53.61 27.979 50.066 27.325 46.467 27.54 43.284 28.441 40.075 29.347 37.279 30.963 35.038 32.831 32.799 34.711 31.083 36.839 29.902 38.915 29.592 39.426 29.364 39.959 29.103 40.454 28.833 40.946 28.635 41.446 28.457 41.933 28.277 42.418 28.079 42.877 27.936 43.329L27.576 44.64C27.312 45.464 27.245 46.235 27.117 46.893 26.982 47.552 26.954 48.122 26.927 48.583L26.834 50 26.883 48.58C26.896 48.116 26.906 47.543 27.021 46.879 27.127 46.215 27.171 45.436 27.411 44.599L27.732 43.266C27.863 42.805 28.047 42.336 28.214 41.84 28.378 41.341 28.564 40.828 28.819 40.322 29.067 39.813 29.283 39.263 29.581 38.735 30.715 36.589 32.393 34.361 34.631 32.357 36.871 30.366 39.705 28.603 43.016 27.553A24.05 24.05 0 0 1 53.825 26.731C57.601 27.262 61.337 28.879 64.549 31.305 64.969 31.585 65.335 31.933 65.717 32.265 66.09 32.605 66.49 32.921 66.844 33.286 67.529 34.035 68.273 34.741 68.865 35.578 70.169 37.161 71.156 38.987 72.018 40.856 72.372 41.823 72.808 42.767 73.039 43.776 73.17 44.276 73.322 44.767 73.435 45.276L73.697 46.837 73.822 47.617 73.871 48.352 73.969 49.82C73.98 50.436 73.942 50.874 73.93 51.41 73.903 51.921 73.918 52.436 73.826 52.941 73.355 56.996 71.949 60.928 69.662 64.124 67.413 67.338 64.503 69.944 61.317 71.674 59.715 72.52 58.087 73.226 56.44 73.692 55.609 73.91 54.822 74.171 53.96 74.281 53.127 74.413 52.251 74.592 51.546 74.604 48.445 74.862 45.438 74.553 42.955 73.827 40.462 73.104 38.354 72.19 36.775 71.183 35.962 70.739 35.261 70.215 34.653 69.761L33.813 69.135 33.233 68.621 32.17 67.679z" data-fill-palette-color="accent"></path><path fill="#a5fe52" d="M41.989 57.71L42.882 58.57 43.205 58.821C43.433 59.004 43.687 59.223 44.057 59.444 44.739 59.927 45.661 60.37 46.766 60.747 47.888 61.124 49.17 61.33 50.704 61.268 51.163 61.276 51.434 61.198 51.803 61.165 52.145 61.147 52.536 61.025 52.919 60.95 53.689 60.768 54.455 60.472 55.223 60.115 56.743 59.37 58.172 58.205 59.315 56.719 60.475 55.24 61.233 53.382 61.554 51.414 61.634 50.944 61.653 50.368 61.691 49.963L61.672 49.132 61.661 48.717 61.614 48.357C61.545 47.408 61.253 46.368 60.919 45.409 60.169 43.495 58.944 41.73 57.349 40.422 55.762 39.109 53.87 38.184 51.91 37.821A12.7 12.7 0 0 0 46.182 38.009 12.6 12.6 0 0 0 41.556 40.402C40.291 41.438 39.315 42.618 38.637 43.776 37.978 44.941 37.519 46.036 37.29 46.98 37.044 47.917 36.924 48.679 36.896 49.2L36.833 50 36.852 49.197C36.849 48.673 36.926 47.902 37.123 46.94 37.302 45.971 37.703 44.833 38.314 43.597 38.944 42.369 39.882 41.089 41.147 39.93A13.35 13.35 0 0 1 45.911 37.122 13.8 13.8 0 0 1 52.121 36.575C54.302 36.855 56.475 37.759 58.354 39.144 60.24 40.522 61.767 42.457 62.766 44.643 62.978 45.205 63.241 45.752 63.382 46.34L63.625 47.214 63.789 48.139 63.868 48.603 63.901 49.02 63.966 49.849C63.982 50.248 63.959 50.477 63.956 50.799 63.941 51.099 63.958 51.402 63.908 51.697 63.663 54.079 62.861 56.4 61.542 58.302 60.241 60.214 58.539 61.771 56.669 62.823 55.727 63.336 54.766 63.765 53.792 64.056 53.297 64.189 52.843 64.353 52.314 64.426 51.82 64.508 51.253 64.626 50.873 64.636 49.067 64.816 47.248 64.649 45.768 64.237 44.274 63.829 43.007 63.293 42.054 62.706A11 11 0 0 1 40.756 61.858L40.237 61.477 39.905 61.192 39.296 60.669z" data-fill-palette-color="accent"></path><rect x="12.779" y="63.3" transform="matrix(-0.7072 0.7071 -0.7071 -0.7072 105.1244 87.0596)" fill="#a5fe52" width="43.509" height="4" data-fill-palette-color="accent"></rect></svg></g></svg></g></svg></g><defs></defs></svg><rect width="395.52" height="70.9910392929231" fill="none" stroke="none" visibility="hidden"></rect></g></svg></g></svg>