<svg xmlns="http://www.w3.org/2000/svg" version="1.1" xmlns:xlink="http://www.w3.org/1999/xlink" xmlns:svgjs="http://svgjs.dev/svgjs" width="2000" height="186" viewBox="0 0 2000 186"><g transform="matrix(1,0,0,1,-1.2121212121212466,-0.4148722226136954)"><svg viewBox="0 0 396 37" data-background-color="#110f10" preserveAspectRatio="xMidYMid meet" height="186" width="2000" xmlns="http://www.w3.org/2000/svg" xmlns:xlink="http://www.w3.org/1999/xlink"><g id="tight-bounds" transform="matrix(1,0,0,1,0.2400000000000091,0.0825283453586394)"><svg viewBox="0 0 395.52 36.83494330928273" height="36.83494330928273" width="395.52"><g><svg viewBox="0 0 395.52 36.83494330928273" height="36.83494330928273" width="395.52"><g><svg viewBox="0 0 395.52 36.83494330928273" height="36.83494330928273" width="395.52"><g id="textblocktransform"><svg viewBox="0 0 395.52 36.83494330928273" height="36.83494330928273" width="395.52" id="textblock"><g><svg viewBox="0 0 395.52 36.83494330928273" height="36.83494330928273" width="395.52"><g transform="matrix(1,0,0,1,0,0)"><svg width="395.52" viewBox="1.4249999999999998 -37.75 412.545 38.4" height="36.83494330928273" data-palette-color="#b9fc6e"><g class="wordmark-text-0" data-fill-palette-color="primary" id="text-0"><path d="M12-29.45L12-29.45 12-6.2Q12-4.65 12.1-3.75 12.2-2.85 12.65-2.45 13.1-2.05 14.1-1.88 15.1-1.7 16.95-1.55L16.95-1.55Q17.1-0.75 16.95 0.05L16.95 0.05Q15.95 0.05 14.5 0.03 13.05 0 11.63-0.03 10.2-0.05 9.25-0.05L9.25-0.05Q8.3-0.05 6.88-0.03 5.45 0 4.03 0.03 2.6 0.05 1.5 0.05L1.5 0.05Q1.35-0.7 1.5-1.55L1.5-1.55Q3.9-1.8 4.95-2.02 6-2.25 6.25-3 6.5-3.75 6.5-5.55L6.5-5.55 6.5-28.8Q6.5-30.9 6.25-31.8 6-32.7 4.95-32.98 3.9-33.25 1.5-33.45L1.5-33.45Q1.4-34.2 1.5-35.05L1.5-35.05Q2.55-35.05 4.03-35.02 5.5-35 6.95-34.98 8.4-34.95 9.35-34.95L9.35-34.95Q10.3-34.95 11.7-34.98 13.1-35 14.55-35.02 16-35.05 16.95-35.05L16.95-35.05Q17.1-34.3 16.95-33.45L16.95-33.45Q14.6-33.25 13.55-33 12.5-32.75 12.25-32 12-31.25 12-29.45ZM35.5 0.05L35.5 0.05Q35.4-0.75 35.5-1.5L35.5-1.5Q37.05-1.6 37.8-1.83 38.55-2.05 38.8-2.8 39.05-3.55 39.05-5.2L39.05-5.2 39.05-15.3Q39.05-18.3 38.12-19.78 37.2-21.25 34.45-21.25L34.45-21.25Q33-21.25 31.65-20.73 30.3-20.2 28.7-18.75L28.7-18.75 28.7-5.7Q28.7-3.75 28.92-2.9 29.15-2.05 29.9-1.83 30.65-1.6 32.25-1.5L32.25-1.5Q32.35-0.75 32.25 0.05L32.25 0.05Q30.85 0.05 29.32 0 27.8-0.05 26.05-0.05L26.05-0.05Q24.45-0.05 22.9 0 21.35 0.05 19.85 0.05L19.85 0.05Q19.7-0.75 19.85-1.5L19.85-1.5Q21.55-1.6 22.35-1.83 23.15-2.05 23.4-2.8 23.65-3.55 23.65-5.2L23.65-5.2 23.65-16.4Q23.65-18.35 23.47-19.3 23.3-20.25 22.52-20.63 21.75-21 19.9-21.25L19.9-21.25Q19.75-21.95 19.9-22.55L19.9-22.55Q24.2-23.4 27.8-24.85L27.8-24.85 28.65-24.55 28.65-20.8Q30.95-22.9 33.15-23.75 35.35-24.6 37.35-24.6L37.35-24.6Q40.65-24.6 42.4-22.65 44.15-20.7 44.15-17.05L44.15-17.05 44.15-5.7Q44.15-3.75 44.37-2.9 44.6-2.05 45.35-1.83 46.1-1.6 47.75-1.5L47.75-1.5Q47.85-0.75 47.75 0.05L47.75 0.05Q46.25 0.05 44.82 0 43.4-0.05 41.5-0.05L41.5-0.05Q39.65-0.05 38.27 0 36.9 0.05 35.5 0.05ZM49.65 0.05L49.65 0.05Q49.6-0.15 49.6-0.35 49.6-0.55 49.6-0.75L49.6-0.75Q49.6-0.95 49.6-1.13 49.6-1.3 49.65-1.5L49.65-1.5Q51.35-1.6 52.15-1.83 52.95-2.05 53.2-2.8 53.45-3.55 53.45-5.2L53.45-5.2 53.45-30.25Q53.45-31.8 53.17-32.58 52.9-33.35 52.02-33.68 51.15-34 49.4-34.15L49.4-34.15Q49.35-34.35 49.35-34.5 49.35-34.65 49.35-34.8L49.35-34.8Q49.35-35 49.35-35.15 49.35-35.3 49.4-35.5L49.4-35.5Q51.4-35.75 53.5-36.27 55.6-36.8 57.8-37.75L57.8-37.75 58.65-37.45Q58.6-36.35 58.57-34.95 58.55-33.55 58.55-31.9L58.55-31.9 58.55-13.35Q59.15-13.35 59.55-13.55 59.95-13.75 60.2-13.95L60.2-13.95Q60.3-14.05 60.6-14.33 60.9-14.6 61.65-15.35 62.4-16.1 63.8-17.6L63.8-17.6Q65.09-19.05 65.87-19.88 66.65-20.7 66.65-21.25L66.65-21.25Q66.65-21.65 65.97-21.93 65.3-22.2 64.15-22.25L64.15-22.25Q64.09-22.45 64.09-22.65 64.09-22.85 64.09-23.05L64.09-23.05Q64.09-23.25 64.09-23.45 64.09-23.65 64.15-23.85L64.15-23.85Q65.15-23.85 66.67-23.8 68.2-23.75 69.4-23.75L69.4-23.75Q70-23.75 71.12-23.78 72.25-23.8 73.4-23.8 74.55-23.8 75.09-23.8L75.09-23.8Q75.15-23.6 75.17-23.4 75.2-23.2 75.2-23L75.2-23Q75.2-22.8 75.17-22.63 75.15-22.45 75.09-22.25L75.09-22.25Q72.5-22.2 70.7-20.98 68.9-19.75 67.25-18.1L67.25-18.1 63.65-14.5 70.55-5.4Q71.65-3.95 72.37-3.13 73.09-2.3 73.95-1.95 74.8-1.6 76.3-1.5L76.3-1.5Q76.4-0.8 76.3 0.05L76.3 0.05Q75.65 0.05 74.37 0 73.09-0.05 70.4-0.05L70.4-0.05Q70-0.05 69.2-0.05 68.4-0.05 67.7 0.05L67.7 0.05Q67.7-0.5 67.09-1.48 66.5-2.45 66.15-2.9L66.15-2.9Q66-3.15 65.4-3.98 64.8-4.8 63.97-5.93 63.15-7.05 62.3-8.22 61.45-9.4 60.75-10.3L60.75-10.3Q60.2-11.05 59.72-11.48 59.25-11.9 58.55-11.9L58.55-11.9 58.55-5.7Q58.55-3.75 58.72-2.9 58.9-2.05 59.57-1.83 60.25-1.6 61.65-1.5L61.65-1.5Q61.75-0.75 61.65 0.05L61.65 0.05Q60.35 0.05 58.92 0 57.5-0.05 55.85-0.05L55.85-0.05Q54.25-0.05 52.7 0 51.15 0.05 49.65 0.05ZM89.44-15.8L89.44-15.8 88.14-15.95 88.14-6.2Q88.14-4.65 88.24-3.75 88.34-2.85 88.77-2.45 89.19-2.05 90.17-1.88 91.14-1.7 92.89-1.55L92.89-1.55Q93.04-0.75 92.89 0.05L92.89 0.05Q91.89 0.05 90.49 0.03 89.09 0 87.69-0.03 86.29-0.05 85.34-0.05L85.34-0.05Q84.44-0.05 82.99-0.03 81.54 0 80.09 0.03 78.64 0.05 77.64 0.05L77.64 0.05Q77.49-0.7 77.64-1.55L77.64-1.55Q80.04-1.75 81.09-1.98 82.14-2.2 82.39-2.98 82.64-3.75 82.64-5.55L82.64-5.55 82.64-28.85Q82.64-30.9 82.37-31.8 82.09-32.7 81.04-33 79.99-33.3 77.64-33.45L77.64-33.45Q77.49-34.2 77.64-35.05L77.64-35.05Q78.59-35.05 80.12-35.02 81.64-35 83.12-34.98 84.59-34.95 85.29-34.95L85.29-34.95Q86.19-34.95 87.62-34.98 89.04-35 90.47-35.05 91.89-35.1 92.69-35.1L92.69-35.1Q95.84-35.1 98.57-34.25 101.29-33.4 102.97-31.48 104.64-29.55 104.64-26.3L104.64-26.3Q104.64-23.1 102.72-20.6 100.79-18.1 96.64-16.85L96.64-16.85 96.64-16.7Q97.39-16.1 98.34-14.7L98.34-14.7 103.59-7.1Q104.89-5.25 105.77-4.2 106.64-3.15 107.44-2.63 108.24-2.1 109.29-1.9 110.34-1.7 111.94-1.55L111.94-1.55Q112.09-0.75 111.94 0.05L111.94 0.05Q110.99 0.05 109.59 0.03 108.19 0 106.89-0.03 105.59-0.05 104.79-0.05L104.79-0.05Q103.99-0.05 103.39-0.03 102.79 0 101.99 0L101.99 0 92.74-13.65Q91.89-14.95 91.24-15.33 90.59-15.7 89.44-15.8ZM88.14-32.85L88.14-18Q88.79-17.9 89.29-17.85 89.79-17.8 90.24-17.8L90.24-17.8Q94.14-17.8 96.42-19.8 98.69-21.8 98.69-25.7L98.69-25.7Q98.69-29.25 96.72-31.15 94.74-33.05 90.89-33.05L90.89-33.05Q90.39-33.05 89.67-33 88.94-32.95 88.14-32.85L88.14-32.85ZM129.94 0.5L129.94 0.5Q126.64 0.5 125.79-2.8L125.79-2.8Q122.24 0.6 118.54 0.6L118.54 0.6Q115.99 0.6 114.22-0.93 112.44-2.45 112.44-5.15L112.44-5.15Q112.44-11.75 125.89-13.45L125.89-13.45Q125.89-14.65 125.92-15.9 125.94-17.15 125.94-18.55L125.94-18.55Q125.94-20.3 124.67-21.28 123.39-22.25 121.59-22.25L121.59-22.25Q120.29-22.25 119.39-21.85L119.39-21.85Q119.39-20.7 118.89-19.5 118.39-18.3 117.52-17.48 116.64-16.65 115.39-16.65L115.39-16.65Q114.29-16.65 113.67-17.28 113.04-17.9 113.04-18.8L113.04-18.8Q113.04-20 114.17-21.08 115.29-22.15 117.04-22.93 118.79-23.7 120.69-24.15 122.59-24.6 124.09-24.6L124.09-24.6Q125.94-24.6 127.52-23.93 129.09-23.25 130.07-21.93 131.04-20.6 131.04-18.65L131.04-18.65Q131.04-17.45 130.99-15.53 130.94-13.6 130.92-11.43 130.89-9.25 130.84-7.3 130.79-5.35 130.79-4.15L130.79-4.15Q130.79-2.55 132.19-2.55L132.19-2.55Q133.09-2.55 134.94-3.15L134.94-3.15Q135.14-2.9 135.22-2.6 135.29-2.3 135.34-2.05L135.34-2.05Q134.09-0.7 132.72-0.1 131.34 0.5 129.94 0.5ZM125.79-4.15L125.79-4.15 125.89-11.65Q121.29-11.05 119.57-9.7 117.84-8.35 117.84-6.25L117.84-6.25Q117.84-4.5 118.77-3.58 119.69-2.65 121.09-2.65L121.09-2.65Q121.99-2.65 123.12-3.05 124.24-3.45 125.79-4.15ZM156.24 0.65L156.24 0.65 155.44 0.3 155.24-3.15Q153.49-1.25 151.66-0.33 149.84 0.6 147.64 0.6L147.64 0.6Q144.54 0.6 142.21-1.07 139.89-2.75 138.64-5.45 137.39-8.15 137.39-11.3L137.39-11.3Q137.39-14.95 138.96-17.95 140.54-20.95 143.41-22.78 146.29-24.6 150.14-24.6L150.14-24.6Q151.29-24.6 152.54-24.43 153.79-24.25 155.14-23.85L155.14-23.85 155.14-30.25Q155.14-31.8 154.84-32.58 154.54-33.35 153.66-33.68 152.79-34 151.04-34.15L151.04-34.15Q150.89-34.8 151.04-35.5L151.04-35.5Q153.04-35.75 155.14-36.27 157.24-36.8 159.44-37.75L159.44-37.75 160.29-37.45Q160.24-36.35 160.21-34.95 160.19-33.55 160.19-31.9L160.19-31.9 160.19-7.1Q160.19-5.2 160.34-4.25 160.49-3.3 161.24-2.93 161.99-2.55 163.79-2.25L163.79-2.25Q163.94-1.6 163.79-0.9L163.79-0.9Q161.79-0.6 159.89-0.25 157.99 0.1 156.24 0.65ZM155.19-5.45L155.19-19.6Q153.04-22.55 149.54-22.55L149.54-22.55Q146.09-22.55 144.34-20.03 142.59-17.5 142.59-13.05L142.59-13.05Q142.59-10.45 143.29-8.05 143.99-5.65 145.59-4.1 147.19-2.55 149.84-2.55L149.84-2.55Q153.19-2.55 155.19-5.45L155.19-5.45ZM184.04 0.5L184.04 0.5Q180.74 0.5 179.89-2.8L179.89-2.8Q176.34 0.6 172.64 0.6L172.64 0.6Q170.09 0.6 168.31-0.93 166.54-2.45 166.54-5.15L166.54-5.15Q166.54-11.75 179.99-13.45L179.99-13.45Q179.99-14.65 180.01-15.9 180.04-17.15 180.04-18.55L180.04-18.55Q180.04-20.3 178.76-21.28 177.49-22.25 175.69-22.25L175.69-22.25Q174.39-22.25 173.49-21.85L173.49-21.85Q173.49-20.7 172.99-19.5 172.49-18.3 171.61-17.48 170.74-16.65 169.49-16.65L169.49-16.65Q168.39-16.65 167.76-17.28 167.14-17.9 167.14-18.8L167.14-18.8Q167.14-20 168.26-21.08 169.39-22.15 171.14-22.93 172.89-23.7 174.79-24.15 176.69-24.6 178.19-24.6L178.19-24.6Q180.04-24.6 181.61-23.93 183.19-23.25 184.16-21.93 185.14-20.6 185.14-18.65L185.14-18.65Q185.14-17.45 185.09-15.53 185.04-13.6 185.01-11.43 184.99-9.25 184.94-7.3 184.89-5.35 184.89-4.15L184.89-4.15Q184.89-2.55 186.29-2.55L186.29-2.55Q187.19-2.55 189.04-3.15L189.04-3.15Q189.24-2.9 189.31-2.6 189.39-2.3 189.44-2.05L189.44-2.05Q188.19-0.7 186.81-0.1 185.44 0.5 184.04 0.5ZM179.89-4.15L179.89-4.15 179.99-11.65Q175.39-11.05 173.66-9.7 171.94-8.35 171.94-6.25L171.94-6.25Q171.94-4.5 172.86-3.58 173.79-2.65 175.19-2.65L175.19-2.65Q176.09-2.65 177.21-3.05 178.34-3.45 179.89-4.15ZM190.88 0.05L190.88 0.05Q190.73-0.75 190.88-1.5L190.88-1.5Q192.58-1.6 193.38-1.83 194.18-2.05 194.43-2.8 194.68-3.55 194.68-5.2L194.68-5.2 194.68-16.4Q194.68-18.35 194.51-19.3 194.33-20.25 193.56-20.63 192.78-21 190.93-21.25L190.93-21.25Q190.78-21.95 190.93-22.55L190.93-22.55Q192.93-22.95 194.83-23.48 196.73-24 198.83-24.85L198.83-24.85 199.68-24.55 199.68-20.15Q203.18-24.6 206.83-24.6L206.83-24.6Q208.58-24.6 209.43-23.68 210.28-22.75 210.28-21.6L210.28-21.6Q210.28-20.25 209.38-19.53 208.48-18.8 207.33-18.8L207.33-18.8Q206.38-18.8 205.46-19.3 204.53-19.8 204.08-20.85L204.08-20.85Q202.38-20.85 201.06-19.53 199.73-18.2 199.73-16.45L199.73-16.45 199.73-5.7Q199.73-3.75 199.96-2.9 200.18-2.05 201.16-1.83 202.13-1.6 204.33-1.5L204.33-1.5Q204.43-0.8 204.33 0.05L204.33 0.05Q202.63 0.05 200.83 0 199.03-0.05 197.13-0.05L197.13-0.05Q195.28-0.05 193.86 0 192.43 0.05 190.88 0.05Z" fill="#b9fc6e" data-fill-palette-color="primary"></path><path d="M235.03-35L245.38-7.6 256.08-35Q257.13-34.95 258.28-34.95 259.43-34.95 260.23-34.95L260.23-34.95Q260.63-34.95 261.7-34.98 262.78-35 264.05-35 265.33-35 266.4-35.02 267.48-35.05 267.88-35.05L267.88-35.05Q268.03-34.3 267.88-33.5L267.88-33.5 267.78-33.5Q265.48-33.25 264.43-33.02 263.38-32.8 263.15-32.02 262.93-31.25 262.93-29.5L262.93-29.5 263.33-6.15Q263.33-4.6 263.43-3.7 263.53-2.8 263.98-2.4 264.43-2 265.43-1.83 266.43-1.65 268.28-1.5L268.28-1.5Q268.43-0.75 268.28 0.05L268.28 0.05Q267.88 0.05 266.8 0.03 265.73 0 264.45 0 263.18 0 262.1-0.03 261.03-0.05 260.63-0.05L260.63-0.05Q260.23-0.05 259.18-0.03 258.13 0 256.88 0 255.63 0 254.58 0.03 253.53 0.05 253.13 0.05L253.13 0.05Q253.08-0.7 253.13-1.5L253.13-1.5 253.23-1.5Q255.43-1.75 256.43-1.98 257.43-2.2 257.65-2.98 257.88-3.75 257.88-5.5L257.88-5.5 257.43-32.3 244.83-0.05Q244.48 0.1 243.73 0.15 242.98 0.2 242.43 0.2L242.43 0.2 230.58-31.25 229.78-5.5Q229.73-3.85 229.93-3.13 230.13-2.4 231.13-2.1 232.13-1.8 234.48-1.5L234.48-1.5Q234.68-0.7 234.48 0.05L234.48 0.05Q233.98 0.05 232.75 0.03 231.53 0 230.3-0.03 229.08-0.05 228.53-0.05L228.53-0.05Q228.23-0.05 227.35-0.03 226.48 0 225.43 0 224.38 0 223.5 0.03 222.63 0.05 222.33 0.05L222.33 0.05Q222.23-0.75 222.33-1.5L222.33-1.5Q224.68-1.8 225.68-2.1 226.68-2.4 226.95-3.3 227.23-4.2 227.28-6.15L227.28-6.15 228.23-29.5Q228.33-31.25 228.08-32 227.83-32.75 226.75-33.02 225.68-33.3 223.23-33.5L223.23-33.5Q223.18-34.3 223.23-35.05L223.23-35.05Q224.93-35.05 226.73-35 228.53-34.95 230.73-34.95L230.73-34.95Q231.48-34.95 232.73-34.95 233.98-34.95 235.03-35L235.03-35ZM282.68 0.6L282.68 0.6Q279.13 0.6 276.68-1.05 274.23-2.7 272.95-5.48 271.68-8.25 271.68-11.6L271.68-11.6Q271.68-15.05 273-18 274.33-20.95 276.88-22.78 279.43-24.6 283.08-24.6L283.08-24.6Q287.48-24.6 289.95-21.98 292.43-19.35 292.43-15.2L292.43-15.2Q292.43-14.7 292.4-14.33 292.38-13.95 292.33-13.7L292.33-13.7 276.58-13.85Q276.58-13.65 276.58-13.5L276.58-13.5Q276.58-8.6 278.83-5.8 281.08-3 285.13-3L285.13-3Q288.53-3 291.83-5.2L291.83-5.2Q292.33-4.6 292.58-4.05L292.58-4.05Q288.33 0.6 282.68 0.6ZM276.73-15.7L276.73-15.7 287.08-15.9Q287.13-16 287.13-16.18 287.13-16.35 287.13-16.4L287.13-16.4Q287.13-19.1 285.95-20.9 284.78-22.7 282.48-22.7L282.48-22.7Q280.33-22.7 278.73-20.95 277.13-19.2 276.73-15.7ZM326.27 0.05L326.27 0.05Q326.12-0.75 326.27-1.5L326.27-1.5Q327.77-1.6 328.52-1.83 329.27-2.05 329.55-2.8 329.82-3.55 329.82-5.2L329.82-5.2 329.82-15.3Q329.82-18.25 328.95-19.75 328.07-21.25 325.37-21.25L325.37-21.25Q322.02-21.25 319.67-18.75L319.67-18.75Q319.77-17.95 319.77-17.05L319.77-17.05 319.77-5.7Q319.77-3.75 320-2.9 320.22-2.05 320.97-1.83 321.72-1.6 323.27-1.5L323.27-1.5Q323.37-0.75 323.27 0.05L323.27 0.05Q321.87 0.05 320.47 0 319.07-0.05 317.17-0.05L317.17-0.05Q315.32-0.05 313.95 0 312.57 0.05 311.32 0.05L311.32 0.05Q311.17-0.75 311.32-1.5L311.32-1.5Q312.77-1.6 313.5-1.83 314.22-2.05 314.47-2.8 314.72-3.55 314.72-5.2L314.72-5.2 314.72-15.3Q314.72-18.25 313.87-19.75 313.02-21.25 310.27-21.25L310.27-21.25Q307.12-21.25 304.77-18.7L304.77-18.7 304.77-5.7Q304.77-3.75 305-2.9 305.22-2.05 306-1.83 306.77-1.6 308.37-1.5L308.37-1.5Q308.47-0.75 308.37 0.05L308.37 0.05Q306.97 0.05 305.5 0 304.02-0.05 302.12-0.05L302.12-0.05Q300.32-0.05 298.87 0 297.42 0.05 295.92 0.05L295.92 0.05Q295.77-0.75 295.92-1.5L295.92-1.5Q297.62-1.6 298.42-1.83 299.22-2.05 299.47-2.8 299.72-3.55 299.72-5.2L299.72-5.2 299.72-16.4Q299.72-18.35 299.55-19.3 299.37-20.25 298.6-20.63 297.82-21 295.97-21.25L295.97-21.25Q295.82-21.95 295.97-22.55L295.97-22.55Q298.07-22.95 300.02-23.5 301.97-24.05 303.87-24.85L303.87-24.85 304.72-24.55 304.72-20.85Q308.77-24.6 313.17-24.6L313.17-24.6Q315.92-24.6 317.32-23.45 318.72-22.3 319.27-20.6L319.27-20.6Q321.42-22.65 323.67-23.63 325.92-24.6 328.22-24.6L328.22-24.6Q331.52-24.6 333.2-22.65 334.87-20.7 334.87-17.05L334.87-17.05 334.87-5.7Q334.87-3.75 335.07-2.9 335.27-2.05 336.02-1.83 336.77-1.6 338.32-1.5L338.32-1.5Q338.47-0.75 338.32 0.05L338.32 0.05Q336.92 0.05 335.52 0 334.12-0.05 332.27-0.05L332.27-0.05Q330.37-0.05 328.95 0 327.52 0.05 326.27 0.05ZM353.57 0.6L353.57 0.6Q351.67 0.6 349.82 0.1 347.97-0.4 346.12-1.35L346.12-1.35Q345.77-0.9 345.42-0.5 345.07-0.1 344.77 0.35L344.77 0.35Q344.42 0.3 344.1 0.25 343.77 0.2 343.52 0.15L343.52 0.15Q343.62-0.75 343.62-2.23 343.62-3.7 343.62-5.7L343.62-5.7 343.62-30.25Q343.62-31.8 343.32-32.58 343.02-33.35 342.15-33.68 341.27-34 339.52-34.15L339.52-34.15Q339.37-34.8 339.52-35.5L339.52-35.5Q341.52-35.75 343.62-36.27 345.72-36.8 347.92-37.75L347.92-37.75 348.77-37.45Q348.72-36.35 348.7-34.95 348.67-33.55 348.67-31.9L348.67-31.9 348.67-21.25Q350.72-23.1 352.65-23.85 354.57-24.6 356.42-24.6L356.42-24.6Q359.57-24.6 361.8-22.93 364.02-21.25 365.2-18.57 366.37-15.9 366.37-12.85L366.37-12.85Q366.37-9.3 364.75-6.23 363.12-3.15 360.25-1.28 357.37 0.6 353.57 0.6ZM348.62-19.05L348.62-19.05 348.62-3.95Q350.92-1.35 354.17-1.35L354.17-1.35Q356.72-1.35 358.27-2.75 359.82-4.15 360.5-6.4 361.17-8.65 361.17-11.15L361.17-11.15Q361.17-13.6 360.5-15.98 359.82-18.35 358.3-19.93 356.77-21.5 354.12-21.5L354.12-21.5Q352.67-21.5 351.27-20.9 349.87-20.3 348.62-19.05ZM381.32 0.6L381.32 0.6Q377.77 0.6 375.32-1.05 372.87-2.7 371.59-5.48 370.32-8.25 370.32-11.6L370.32-11.6Q370.32-15.05 371.64-18 372.97-20.95 375.52-22.78 378.07-24.6 381.72-24.6L381.72-24.6Q386.12-24.6 388.59-21.98 391.07-19.35 391.07-15.2L391.07-15.2Q391.07-14.7 391.04-14.33 391.02-13.95 390.97-13.7L390.97-13.7 375.22-13.85Q375.22-13.65 375.22-13.5L375.22-13.5Q375.22-8.6 377.47-5.8 379.72-3 383.77-3L383.77-3Q387.17-3 390.47-5.2L390.47-5.2Q390.97-4.6 391.22-4.05L391.22-4.05Q386.97 0.6 381.32 0.6ZM375.37-15.7L375.37-15.7 385.72-15.9Q385.77-16 385.77-16.18 385.77-16.35 385.77-16.4L385.77-16.4Q385.77-19.1 384.59-20.9 383.42-22.7 381.12-22.7L381.12-22.7Q378.97-22.7 377.37-20.95 375.77-19.2 375.37-15.7ZM394.57 0.05L394.57 0.05Q394.42-0.75 394.57-1.5L394.57-1.5Q396.27-1.6 397.07-1.83 397.87-2.05 398.12-2.8 398.37-3.55 398.37-5.2L398.37-5.2 398.37-16.4Q398.37-18.35 398.19-19.3 398.02-20.25 397.24-20.63 396.47-21 394.62-21.25L394.62-21.25Q394.47-21.95 394.62-22.55L394.62-22.55Q396.62-22.95 398.52-23.48 400.42-24 402.52-24.85L402.52-24.85 403.37-24.55 403.37-20.15Q406.87-24.6 410.52-24.6L410.52-24.6Q412.27-24.6 413.12-23.68 413.97-22.75 413.97-21.6L413.97-21.6Q413.97-20.25 413.07-19.53 412.17-18.8 411.02-18.8L411.02-18.8Q410.07-18.8 409.14-19.3 408.22-19.8 407.77-20.85L407.77-20.85Q406.07-20.85 404.74-19.53 403.42-18.2 403.42-16.45L403.42-16.45 403.42-5.7Q403.42-3.75 403.64-2.9 403.87-2.05 404.84-1.83 405.82-1.6 408.02-1.5L408.02-1.5Q408.12-0.8 408.02 0.05L408.02 0.05Q406.32 0.05 404.52 0 402.72-0.05 400.82-0.05L400.82-0.05Q398.97-0.05 397.54 0 396.12 0.05 394.57 0.05Z" fill="#cef196" data-fill-palette-color="secondary"></path></g></svg></g></svg></g></svg></g></svg></g></svg></g><defs></defs></svg><rect width="395.52" height="36.83494330928273" fill="none" stroke="none" visibility="hidden"></rect></g></svg></g></svg>